<svg xmlns="http://www.w3.org/2000/svg" viewBox="0 0 24 24" fill="none">
  <rect width="24" height="24" rx="4" fill="url(#gradient)"/>
  <path d="M12 6C9.243 6 7 8.243 7 11C7 13.757 9.243 16 12 16C14.757 16 17 13.757 17 11C17 8.243 14.757 6 12 6ZM12 14C10.346 14 9 12.654 9 11C9 9.346 10.346 8 12 8C13.654 8 15 9.346 15 11C15 12.654 13.654 14 12 14Z" fill="white"/>
  <path d="M12 2L14 7L19 6L16 11L19 16L14 15L12 20L10 15L5 16L8 11L5 6L10 7Z" fill="white" opacity="0.4"/>
  <defs>
    <linearGradient id="gradient" x1="0" y1="0" x2="24" y2="24">
      <stop offset="0%" stop-color="#3b82f6"/>
      <stop offset="100%" stop-color="#6366f1"/>
    </linearGradient>
  </defs>
</svg>